<svg width="24" height="24" viewBox="0 0 24 24" fill="none" xmlns="http://www.w3.org/2000/svg">
<path d="M14.7185 12.8539L15.4013 12.3167C16.3 11.6096 16.956 10.64 17.278 9.54279C17.5999 8.44556 17.5719 7.27526 17.1978 6.19469C16.8237 5.11413 16.1221 4.17704 15.1905 3.5138C14.259 2.85055 13.144 2.49414 12.0005 2.49414C10.857 2.49414 9.74192 2.85055 8.81042 3.5138C7.87892 4.17704 7.1773 5.11413 6.80318 6.19469C6.42906 7.27526 6.40104 8.44556 6.72302 9.54279C7.04499 10.64 7.70096 11.6096 8.59965 12.3167L9.2799 12.8519L8.47644 13.1738C6.88051 13.8132 5.48801 14.8737 4.44738 16.2422C3.40676 17.6107 2.75702 19.236 2.56744 20.9448L2.07048 20.8896M14.7185 12.8539L4.07049 21.1096C4.29007 19.1548 5.22217 17.3494 6.6887 16.0384C8.15524 14.7274 10.0534 14.0027 12.0205 14.0027C13.9876 14.0027 15.8857 14.7274 17.3523 16.0384C18.8188 17.3494 19.7509 19.1548 19.9705 21.1096C19.9977 21.3554 20.1149 21.5823 20.2996 21.7467C20.4843 21.911 20.7233 22.0011 20.9705 21.9996H21.0805M14.7185 12.8539L15.526 13.1744C17.1286 13.8104 18.5279 14.8705 19.5739 16.2412C20.6195 17.6114 21.2727 19.2404 21.4634 20.9535M14.7185 12.8539L21.9605 20.8996M2.07048 20.8896L2.56749 20.9443C2.56022 21.0104 2.56604 21.0772 2.5846 21.141C2.60317 21.2048 2.63412 21.2643 2.67569 21.3162L2.2856 21.629L2.67569 21.3162C2.75964 21.4209 2.88175 21.488 3.01515 21.5026C3.14856 21.5173 3.28233 21.4784 3.38703 21.3944C3.49174 21.3105 3.55881 21.1884 3.57348 21.055L3.57361 21.0538C3.80692 18.9768 4.79728 17.0586 6.35547 15.6657C7.91366 14.2727 9.93044 13.5027 12.0205 13.5027C14.1105 13.5027 16.1273 14.2727 17.6855 15.6657C19.2437 17.0586 20.234 18.9768 20.4674 21.0538L20.4675 21.0546C20.481 21.1775 20.5397 21.291 20.632 21.3732C20.7243 21.4553 20.8438 21.5004 20.9675 21.4996L20.9705 21.4996L21.0469 21.4996M2.07048 20.8896C2.27005 19.0909 2.95398 17.3801 4.04938 15.9396C5.03117 14.6484 6.31051 13.6177 7.77489 12.9332L2.07048 20.8896ZM21.0469 21.4996C21.0391 21.5009 21.0312 21.502 21.0233 21.5029L21.0805 21.9996M21.0469 21.4996H21.0805V21.9996M21.0469 21.4996C21.1687 21.4797 21.2792 21.4154 21.3566 21.3185C21.4389 21.2157 21.4773 21.0845 21.4634 20.9535M21.0805 21.9996C21.3426 21.9695 21.5822 21.8369 21.747 21.6309C21.9119 21.4248 21.9886 21.162 21.9605 20.8996M21.9605 20.8996L21.4635 20.9549C21.4635 20.9544 21.4634 20.9539 21.4634 20.9535M21.9605 20.8996L21.4633 20.9529C21.4633 20.9531 21.4634 20.9533 21.4634 20.9535M9.50042 11.7413C10.2404 12.2357 11.1105 12.4996 12.0005 12.4996C13.194 12.4996 14.3386 12.0255 15.1825 11.1816C16.0264 10.3377 16.5005 9.19311 16.5005 7.99964C16.5005 7.10962 16.2366 6.23959 15.7421 5.49957C15.2476 4.75955 14.5448 4.18277 13.7226 3.84218C12.9003 3.50158 11.9955 3.41247 11.1226 3.5861C10.2497 3.75974 9.44784 4.18832 8.8185 4.81766C8.18917 5.44699 7.76058 6.24882 7.58695 7.12173C7.41332 7.99465 7.50243 8.89944 7.84303 9.72171C8.18362 10.544 8.7604 11.2468 9.50042 11.7413Z" fill="#424C5D" stroke="#424C5D"/>
</svg>
