<svg width="16" height="16" viewBox="0 0 16 16" fill="none" xmlns="http://www.w3.org/2000/svg">
<path d="M1.38703 11.5867C1.45468 11.7496 1.58413 11.879 1.74703 11.9467C1.82718 11.9808 1.91325 11.9989 2.00037 12H5.3337C5.51051 12 5.68008 11.9298 5.8051 11.8047C5.93013 11.6797 6.00037 11.5101 6.00037 11.3333C6.00037 11.1565 5.93013 10.987 5.8051 10.8619C5.68008 10.7369 5.51051 10.6667 5.3337 10.6667H3.60703L7.3337 6.94L9.52703 9.14C9.58901 9.20249 9.66274 9.25208 9.74398 9.28593C9.82522 9.31977 9.91236 9.3372 10.0004 9.3372C10.0884 9.3372 10.1755 9.31977 10.2568 9.28593C10.338 9.25208 10.4117 9.20249 10.4737 9.14L14.4737 5.14C14.5362 5.07802 14.5858 5.00429 14.6196 4.92305C14.6535 4.84181 14.6709 4.75467 14.6709 4.66667C14.6709 4.57866 14.6535 4.49152 14.6196 4.41028C14.5858 4.32904 14.5362 4.25531 14.4737 4.19333C14.4117 4.13085 14.338 4.08125 14.2568 4.04741C14.1755 4.01356 14.0884 3.99613 14.0004 3.99613C13.9124 3.99613 13.8252 4.01356 13.744 4.04741C13.6627 4.08125 13.589 4.13085 13.527 4.19333L10.0004 7.72667L7.80703 5.52667C7.74506 5.46418 7.67132 5.41459 7.59008 5.38074C7.50884 5.34689 7.42171 5.32947 7.3337 5.32947C7.24569 5.32947 7.15855 5.34689 7.07731 5.38074C6.99608 5.41459 6.92234 5.46418 6.86037 5.52667L2.66703 9.72667V8C2.66703 7.82319 2.5968 7.65362 2.47177 7.5286C2.34675 7.40357 2.17718 7.33333 2.00037 7.33333C1.82355 7.33333 1.65399 7.40357 1.52896 7.5286C1.40394 7.65362 1.3337 7.82319 1.3337 8V11.3333C1.33475 11.4205 1.35287 11.5065 1.38703 11.5867Z" fill="#359766"/>
</svg>
