<svg width="40" height="40" viewBox="0 0 40 40" fill="none" xmlns="http://www.w3.org/2000/svg">
<path d="M20 3.33334C10.8334 3.33334 3.33337 10.8333 3.33337 20C3.33337 29.1667 10.8334 36.6667 20 36.6667C29.1667 36.6667 36.6667 29.1667 36.6667 20C36.6667 10.8333 29.1667 3.33334 20 3.33334ZM26.1667 21.1667L21.1667 26.1667C20.5 26.8333 19.5 26.8333 18.8334 26.1667C18.1667 25.5 18.1667 24.5 18.8334 23.8333L21 21.6667H15C14 21.6667 13.3334 21 13.3334 20C13.3334 19 14 18.3333 15 18.3333H21L18.8334 16.1667C18.1667 15.5 18.1667 14.5 18.8334 13.8333C19.5 13.1667 20.5 13.1667 21.1667 13.8333L26.1667 18.8333C26.8334 19.5 26.8334 20.5 26.1667 21.1667Z" fill="#0061FF"/>
</svg>
