<svg width="32" height="32" viewBox="0 0 32 32" fill="none" xmlns="http://www.w3.org/2000/svg">
<path d="M24.0007 17.5732V13.3332C23.9987 11.444 23.3283 9.61646 22.1081 8.1742C20.8879 6.73194 19.1967 5.76803 17.334 5.45317V3.99984C17.334 3.64622 17.1935 3.30708 16.9435 3.05703C16.6934 2.80698 16.3543 2.6665 16.0007 2.6665C15.647 2.6665 15.3079 2.80698 15.0578 3.05703C14.8078 3.30708 14.6673 3.64622 14.6673 3.99984V5.45317C12.8046 5.76803 11.1133 6.73194 9.89316 8.1742C8.67298 9.61646 8.00257 11.444 8.00065 13.3332V17.5732C7.22258 17.8483 6.54865 18.3573 6.07124 19.0304C5.59382 19.7036 5.3363 20.5079 5.33398 21.3332V23.9998C5.33398 24.3535 5.47446 24.6926 5.72451 24.9426C5.97456 25.1927 6.3137 25.3332 6.66732 25.3332H10.854C11.161 26.463 11.8313 27.4604 12.7614 28.1715C13.6916 28.8826 14.8298 29.2678 16.0007 29.2678C17.1715 29.2678 18.3097 28.8826 19.2399 28.1715C20.17 27.4604 20.8403 26.463 21.1473 25.3332H25.334C25.6876 25.3332 26.0267 25.1927 26.2768 24.9426C26.5268 24.6926 26.6673 24.3535 26.6673 23.9998V21.3332C26.665 20.5079 26.4075 19.7036 25.9301 19.0304C25.4527 18.3573 24.7787 17.8483 24.0007 17.5732ZM10.6673 13.3332C10.6673 11.9187 11.2292 10.5621 12.2294 9.56193C13.2296 8.56174 14.5862 7.99984 16.0007 7.99984C17.4151 7.99984 18.7717 8.56174 19.7719 9.56193C20.7721 10.5621 21.334 11.9187 21.334 13.3332V17.3332H10.6673V13.3332ZM16.0007 26.6665C15.5353 26.6637 15.0787 26.5391 14.6764 26.3052C14.2741 26.0713 13.94 25.7362 13.7073 25.3332H18.294C18.0613 25.7362 17.7272 26.0713 17.3249 26.3052C16.9226 26.5391 16.466 26.6637 16.0007 26.6665ZM24.0007 22.6665H8.00065V21.3332C8.00065 20.9795 8.14113 20.6404 8.39118 20.3904C8.64122 20.1403 8.98036 19.9998 9.33398 19.9998H22.6673C23.0209 19.9998 23.3601 20.1403 23.6101 20.3904C23.8602 20.6404 24.0007 20.9795 24.0007 21.3332V22.6665Z" fill="#424C5D"/>
</svg>
