<svg width="24" height="24" viewBox="0 0 24 24" fill="none" xmlns="http://www.w3.org/2000/svg">
<path d="M21.3282 10.6234L21.3291 10.6242C21.4056 10.6919 21.4595 10.7813 21.4836 10.8805C21.5078 10.9798 21.5009 11.084 21.4641 11.1792L21.4639 11.1797C21.4276 11.2737 21.3638 11.3545 21.2809 11.4116C21.198 11.4686 21.1 11.4993 20.9994 11.4997H20.0004H19.5004V11.9997V20.9997C19.5004 21.1323 19.4477 21.2595 19.3539 21.3533C19.2601 21.447 19.133 21.4997 19.0004 21.4997H5.00036C4.86775 21.4997 4.74058 21.447 4.64681 21.3533C4.55304 21.2595 4.50036 21.1323 4.50036 20.9997V11.9997V11.4997H4.00036H3.0013C2.90076 11.4993 2.80269 11.4686 2.71987 11.4116C2.63689 11.3545 2.5731 11.2737 2.53684 11.1797L2.53665 11.1792C2.49978 11.084 2.49296 10.9798 2.5171 10.8805C2.54123 10.7813 2.59516 10.6919 2.67165 10.6242L2.67254 10.6234L11.6704 2.62534C11.6707 2.62508 11.671 2.62481 11.6713 2.62454C11.7624 2.54489 11.8793 2.50098 12.0004 2.50098C12.1214 2.50098 12.2383 2.54489 12.3295 2.62455C12.3298 2.62481 12.3301 2.62508 12.3304 2.62534L21.3282 10.6234ZM13.0004 20.4997H13.5004V19.9997V16.9997C13.5004 16.6019 13.3423 16.2204 13.061 15.939C12.7797 15.6577 12.3982 15.4997 12.0004 15.4997C11.6025 15.4997 11.221 15.6577 10.9397 15.939C10.6584 16.2204 10.5004 16.6019 10.5004 16.9997V19.9997V20.4997H11.0004H13.0004ZM18.0004 20.4997H18.5004V19.9997V11.9997V11.4997H18.0004H6.00036H5.50036V11.9997V19.9997V20.4997H6.00036H9.00036H9.50036V19.9997V16.9997C9.50036 16.3367 9.76375 15.7008 10.2326 15.2319C10.7014 14.7631 11.3373 14.4997 12.0004 14.4997C12.6634 14.4997 13.2993 14.7631 13.7681 15.2319C14.237 15.7008 14.5004 16.3367 14.5004 16.9997V19.9997V20.4997H15.0004H18.0004ZM5.29825 9.62594L4.31488 10.4997H5.63036H18.3704H19.6858L18.7025 9.62594L12.3325 3.96594L12.0004 3.67085L11.6683 3.96594L5.29825 9.62594Z" fill="black" stroke="#424C5D"/>
</svg>
