<svg width="24" height="24" viewBox="0 0 24 24" fill="none" xmlns="http://www.w3.org/2000/svg">
<path d="M19.0557 2H5.05566C4.26028 2.00087 3.49772 2.31722 2.9353 2.87964C2.37288 3.44206 2.05653 4.20462 2.05566 5V19C2.05653 19.7954 2.37288 20.5579 2.9353 21.1204C3.49772 21.6828 4.26028 21.9991 5.05566 22H19.0557C19.851 21.9991 20.6136 21.6828 21.176 21.1204C21.7384 20.5579 22.0548 19.7954 22.0557 19V5C22.0548 4.20462 21.7384 3.44206 21.176 2.87964C20.6136 2.31722 19.851 2.00087 19.0557 2ZM5.05566 4H19.0557C19.3208 4.00026 19.575 4.10571 19.7625 4.29319C19.95 4.48066 20.0554 4.73486 20.0557 5V13H17.5908C17.2615 12.9997 16.9373 13.0809 16.6469 13.2363C16.3566 13.3917 16.1092 13.6165 15.9268 13.8906L14.5205 16H9.59082L8.18457 13.8906C8.00214 13.6165 7.75474 13.3917 7.46441 13.2363C7.17407 13.0809 6.84982 12.9997 6.52051 13H4.05566V5C4.05593 4.73486 4.16137 4.48066 4.34885 4.29319C4.53633 4.10571 4.79053 4.00026 5.05566 4ZM19.0557 20H5.05566C4.79053 19.9997 4.53633 19.8943 4.34885 19.7068C4.16137 19.5193 4.05593 19.2651 4.05566 19V15H6.52051L7.92676 17.1094C8.1092 17.3835 8.35659 17.6083 8.64693 17.7637C8.93726 17.9191 9.26152 18.0003 9.59082 18H14.5205C14.8498 18.0003 15.1741 17.9191 15.4644 17.7637C15.7547 17.6083 16.0021 17.3835 16.1846 17.1094L17.5908 15H20.0557V19C20.0554 19.2651 19.95 19.5193 19.7625 19.7068C19.575 19.8943 19.3208 19.9997 19.0557 20Z" fill="#424C5D"/>
</svg>
